<?xml version="1.0" encoding="UTF-8" standalone="no"?>
<!-- Generator: Gravit.io -->
<svg xmlns="http://www.w3.org/2000/svg" xmlns:xlink="http://www.w3.org/1999/xlink" style="isolation:isolate" viewBox="0 0 64 64" width="64pt" height="64pt"><defs><clipPath id="_clipPath_D24i4cdR308UiSiBIJjqi8Ah1Rh4wtVZ"><rect width="64" height="64"/></clipPath></defs><g clip-path="url(#_clipPath_D24i4cdR308UiSiBIJjqi8Ah1Rh4wtVZ)"><g><clipPath id="_clipPath_1Zu7XzdQJbgNCDa0KV7wwGP4lHIG29EY"><path d=" M -120 677.647 L 500 677.647 L 500 -199.21 L -120 -199.21 L -120 677.647 Z " fill="rgb(255,255,255)"/></clipPath><g clip-path="url(#_clipPath_1Zu7XzdQJbgNCDa0KV7wwGP4lHIG29EY)"><g style="mix-blend-mode:multiply;"><path d=" M 400.504 -86.847 L 464.571 -86.847 L 464.571 -150.569 L 400.504 -150.569 L 400.504 -86.847 Z " fill="rgb(255,255,255)"/></g><path d=" M 421.857 33.057 L 421.857 34.62 L 425.925 34.62 C 425.906 34.098 425.889 33.578 425.871 33.057 L 425.656 33.057 L 425.656 26.893 L 425.728 26.893 C 425.726 26.373 425.728 25.852 425.734 25.331 L -55.173 25.331 L -55.173 26.893 L -50.782 26.893 L -50.782 32.883 L -53.019 32.883 L -53.019 34.446 L -46.982 34.446 L -46.982 32.883 L -49.219 32.883 L -49.219 26.893 L -39.056 26.893 L -39.056 32.883 L -41.293 32.883 L -41.293 34.446 L -35.257 34.446 L -35.257 32.883 L -37.494 32.883 L -37.494 26.893 L -27.331 26.893 L -27.331 32.883 L -29.568 32.883 L -29.568 34.446 L -23.531 34.446 L -23.531 32.883 L -25.768 32.883 L -25.768 26.893 L -15.605 26.893 L -15.605 32.883 L -17.842 32.883 L -17.842 34.446 L -11.805 34.446 L -11.805 32.883 L -14.043 32.883 L -14.043 26.893 L -3.88 26.893 L -3.88 33.307 L -6.118 33.307 L -6.118 34.87 L 5.782 34.87 L 5.782 33.307 L 3.545 33.307 L 3.545 26.893 L 13.708 26.893 L 13.708 32.883 L 11.471 32.883 L 11.471 34.446 L 17.507 34.446 L 17.507 32.883 L 15.27 32.883 L 15.27 26.893 L 25.434 26.893 L 25.434 32.883 L 23.196 32.883 L 23.196 34.446 L 29.233 34.446 L 29.233 32.883 L 26.996 32.883 L 26.996 26.893 L 37.158 26.893 L 37.158 32.883 L 34.921 32.883 L 34.921 34.446 L 40.958 34.446 L 40.958 32.883 L 38.72 32.883 L 38.72 26.893 L 48.884 26.893 L 48.884 32.883 L 46.646 32.883 L 46.646 34.446 L 52.683 34.446 L 52.683 32.883 L 50.446 32.883 L 50.446 26.893 L 60.609 26.893 L 60.609 33.419 L 58.372 33.419 L 58.372 34.981 L 70.272 34.981 L 70.272 33.419 L 68.034 33.419 L 68.034 26.893 L 78.198 26.893 L 78.198 32.994 L 75.96 32.994 L 75.96 34.556 L 81.996 34.556 L 81.996 32.994 L 79.76 32.994 L 79.76 26.893 L 89.922 26.893 L 89.922 32.994 L 87.685 32.994 L 87.685 34.556 L 93.722 34.556 L 93.722 32.994 L 91.484 32.994 L 91.484 26.893 L 101.648 26.893 L 101.648 32.994 L 99.411 32.994 L 99.411 34.556 L 105.447 34.556 L 105.447 32.994 L 103.21 32.994 L 103.21 26.893 L 113.373 26.893 L 113.373 32.994 L 111.136 32.994 L 111.136 34.556 L 117.173 34.556 L 117.173 32.994 L 114.936 32.994 L 114.936 26.893 L 125.099 26.893 L 125.099 33.307 L 122.862 33.307 L 122.862 34.87 L 134.76 34.87 L 134.76 33.307 L 132.523 33.307 L 132.523 26.893 L 142.686 26.893 L 142.686 32.883 L 140.449 32.883 L 140.449 34.446 L 146.486 34.446 L 146.486 32.883 L 144.249 32.883 L 144.249 26.893 L 154.412 26.893 L 154.412 32.883 L 152.175 32.883 L 152.175 34.446 L 158.211 34.446 L 158.211 32.883 L 155.974 32.883 L 155.974 26.893 L 166.137 26.893 L 166.137 32.883 L 163.9 32.883 L 163.9 34.446 L 169.937 34.446 L 169.937 32.883 L 167.7 32.883 L 167.7 26.893 L 177.862 26.893 L 177.862 32.883 L 175.625 32.883 L 175.625 34.446 L 181.661 34.446 L 181.661 32.883 L 179.424 32.883 L 179.424 26.893 L 189.588 26.893 L 189.588 33.419 L 187.35 33.419 L 187.35 34.981 L 199.25 34.981 L 199.25 33.419 L 197.013 33.419 L 197.013 26.893 L 207.176 26.893 L 207.176 32.994 L 204.939 32.994 L 204.939 34.556 L 210.975 34.556 L 210.975 32.994 L 208.738 32.994 L 208.738 26.893 L 218.9 26.893 L 218.9 32.994 L 216.663 32.994 L 216.663 34.556 L 222.7 34.556 L 222.7 32.994 L 220.463 32.994 L 220.463 26.893 L 230.626 26.893 L 230.626 32.994 L 228.389 32.994 L 228.389 34.556 L 234.426 34.556 L 234.426 32.994 L 232.188 32.994 L 232.188 26.893 L 242.352 26.893 L 242.352 32.994 L 240.114 32.994 L 240.114 34.556 L 246.151 34.556 L 246.151 32.994 L 243.914 32.994 L 243.914 26.893 L 254.077 26.893 L 254.077 33.481 L 251.84 33.481 L 251.84 35.043 L 263.739 35.043 L 263.739 33.481 L 261.502 33.481 L 261.502 26.893 L 271.665 26.893 L 271.665 33.057 L 269.427 33.057 L 269.427 34.62 L 275.464 34.62 L 275.464 33.057 L 273.227 33.057 L 273.227 26.893 L 283.39 26.893 L 283.39 33.057 L 281.153 33.057 L 281.153 34.62 L 287.19 34.62 L 287.19 33.057 L 284.952 33.057 L 284.952 26.893 L 295.116 26.893 L 295.116 33.057 L 292.879 33.057 L 292.879 34.62 L 298.915 34.62 L 298.915 33.057 L 296.678 33.057 L 296.678 26.893 L 306.84 26.893 L 306.84 33.057 L 304.604 33.057 L 304.604 34.62 L 310.64 34.62 L 310.64 33.057 L 308.403 33.057 L 308.403 26.893 L 318.566 26.893 L 318.566 33.593 L 316.329 33.593 L 316.329 35.155 L 328.228 35.155 L 328.228 33.593 L 325.991 33.593 L 325.991 26.893 L 336.154 26.893 L 336.154 33.169 L 333.917 33.169 L 333.917 34.731 L 339.954 34.731 L 339.954 33.169 L 337.717 33.169 L 337.717 26.893 L 347.88 26.893 L 347.88 33.169 L 345.643 33.169 L 345.643 34.731 L 351.679 34.731 L 351.679 33.169 L 349.442 33.169 L 349.442 26.893 L 359.604 26.893 L 359.604 33.169 L 357.367 33.169 L 357.367 34.731 L 363.404 34.731 L 363.404 33.169 L 361.167 33.169 L 361.167 26.893 L 371.33 26.893 L 371.33 33.169 L 369.093 33.169 L 369.093 34.731 L 375.129 34.731 L 375.129 33.169 L 372.892 33.169 L 372.892 26.893 L 383.056 26.893 L 383.056 33.481 L 380.818 33.481 L 380.818 35.043 L 392.718 35.043 L 392.718 33.481 L 390.481 33.481 L 390.481 26.893 L 400.643 26.893 L 400.643 33.057 L 398.406 33.057 L 398.406 34.62 L 404.442 34.62 L 404.442 33.057 L 402.205 33.057 L 402.205 26.893 L 412.368 26.893 L 412.368 33.057 L 410.131 33.057 L 410.131 34.62 L 416.168 34.62 L 416.168 33.057 L 413.931 33.057 L 413.931 26.893 L 424.094 26.893 L 424.094 33.057 L 421.857 33.057 Z  M 1.982 33.307 L -2.318 33.307 L -2.318 26.893 L 1.982 26.893 L 1.982 33.307 Z  M 66.472 33.419 L 62.172 33.419 L 62.172 26.893 L 66.472 26.893 L 66.472 33.419 Z  M 130.961 33.307 L 126.66 33.307 L 126.66 26.893 L 130.961 26.893 L 130.961 33.307 Z  M 195.45 33.419 L 191.15 33.419 L 191.15 26.893 L 195.45 26.893 L 195.45 33.419 Z  M 259.94 33.481 L 255.64 33.481 L 255.64 26.893 L 259.94 26.893 L 259.94 33.481 Z  M 324.429 33.593 L 320.128 33.593 L 320.128 26.893 L 324.429 26.893 L 324.429 33.593 Z  M 388.918 33.481 L 384.618 33.481 L 384.618 26.893 L 388.918 26.893 L 388.918 33.481 Z " fill="rgb(255,255,255)"/><g><path d=" M 426.003 37.024 L 419.794 37.024 L 419.794 30.986 L 422.031 30.986 L 422.031 29.424 L 415.994 29.424 L 415.994 30.986 L 418.231 30.986 L 418.231 37.024 L 408.068 37.024 L 408.068 30.986 L 410.305 30.986 L 410.305 29.424 L 404.268 29.424 L 404.268 30.986 L 406.506 30.986 L 406.506 37.024 L 396.343 37.024 L 396.343 30.986 L 398.581 30.986 L 398.581 29.424 L 392.544 29.424 L 392.544 30.986 L 394.781 30.986 L 394.781 37.024 L 378.755 37.024 L 378.755 31.098 L 380.992 31.098 L 380.992 29.536 L 374.956 29.536 L 374.956 31.098 L 377.193 31.098 L 377.193 37.024 L 367.029 37.024 L 367.029 31.098 L 369.267 31.098 L 369.267 29.536 L 363.23 29.536 L 363.23 31.098 L 365.467 31.098 L 365.467 37.024 L 355.305 37.024 L 355.305 31.098 L 357.542 31.098 L 357.542 29.536 L 351.505 29.536 L 351.505 31.098 L 353.743 31.098 L 353.743 37.024 L 343.579 37.024 L 343.579 31.098 L 345.817 31.098 L 345.817 29.536 L 339.78 29.536 L 339.78 31.098 L 342.017 31.098 L 342.017 37.024 L 331.854 37.024 L 331.854 31.098 L 334.091 31.098 L 334.091 29.536 L 328.054 29.536 L 328.054 31.098 L 330.291 31.098 L 330.291 37.024 L 314.265 37.024 L 314.265 30.986 L 316.503 30.986 L 316.503 29.424 L 310.466 29.424 L 310.466 30.986 L 312.703 30.986 L 312.703 37.024 L 302.541 37.024 L 302.541 30.986 L 304.778 30.986 L 304.778 29.424 L 298.741 29.424 L 298.741 30.986 L 300.979 30.986 L 300.979 37.024 L 290.815 37.024 L 290.815 30.813 L 293.052 30.813 L 293.052 29.25 L 287.016 29.25 L 287.016 30.813 L 289.253 30.813 L 289.253 37.024 L 279.09 37.024 L 279.09 30.813 L 281.327 30.813 L 281.327 29.25 L 275.29 29.25 L 275.29 30.813 L 277.527 30.813 L 277.527 37.024 L 267.365 37.024 L 267.365 31.098 L 269.601 31.098 L 269.601 29.536 L 263.566 29.536 L 263.566 31.098 L 265.803 31.098 L 265.803 37.024 L 249.777 37.024 L 249.777 30.924 L 252.014 30.924 L 252.014 29.362 L 245.977 29.362 L 245.977 30.924 L 248.214 30.924 L 248.214 37.024 L 238.051 37.024 L 238.051 30.924 L 240.288 30.924 L 240.288 29.362 L 234.252 29.362 L 234.252 30.924 L 236.489 30.924 L 236.489 37.024 L 226.326 37.024 L 226.326 30.924 L 228.563 30.924 L 228.563 29.362 L 222.526 29.362 L 222.526 30.924 L 224.763 30.924 L 224.763 37.024 L 214.601 37.024 L 214.601 30.924 L 216.838 30.924 L 216.838 29.362 L 210.801 29.362 L 210.801 30.924 L 213.039 30.924 L 213.039 37.024 L 202.875 37.024 L 202.875 30.924 L 205.113 30.924 L 205.113 29.362 L 199.076 29.362 L 199.076 30.924 L 201.313 30.924 L 201.313 37.024 L 185.287 37.024 L 185.287 30.813 L 187.524 30.813 L 187.524 29.25 L 181.488 29.25 L 181.488 30.813 L 183.725 30.813 L 183.725 37.024 L 173.563 37.024 L 173.563 30.813 L 175.799 30.813 L 175.799 29.25 L 169.763 29.25 L 169.763 30.813 L 172 30.813 L 172 37.024 L 161.837 37.024 L 161.837 30.813 L 164.074 30.813 L 164.074 29.25 L 158.037 29.25 L 158.037 30.813 L 160.275 30.813 L 160.275 37.024 L 150.111 37.024 L 150.111 30.813 L 152.349 30.813 L 152.349 29.25 L 146.312 29.25 L 146.312 30.813 L 148.549 30.813 L 148.549 37.024 L 138.386 37.024 L 138.386 30.813 L 140.623 30.813 L 140.623 29.25 L 134.586 29.25 L 134.586 30.813 L 136.823 30.813 L 136.823 37.024 L 120.798 37.024 L 120.798 30.924 L 123.036 30.924 L 123.036 29.362 L 116.999 29.362 L 116.999 30.924 L 119.236 30.924 L 119.236 37.024 L 109.073 37.024 L 109.073 30.924 L 111.31 30.924 L 111.31 29.362 L 105.273 29.362 L 105.273 30.924 L 107.511 30.924 L 107.511 37.024 L 97.347 37.024 L 97.347 30.924 L 99.584 30.924 L 99.584 29.362 L 93.548 29.362 L 93.548 30.924 L 95.785 30.924 L 95.785 37.024 L 85.623 37.024 L 85.623 30.924 L 87.859 30.924 L 87.859 29.362 L 81.822 29.362 L 81.822 30.924 L 84.06 30.924 L 84.06 37.024 L 73.897 37.024 L 73.897 30.924 L 76.134 30.924 L 76.134 29.362 L 70.098 29.362 L 70.098 30.924 L 72.335 30.924 L 72.335 37.024 L 56.309 37.024 L 56.309 30.813 L 58.546 30.813 L 58.546 29.25 L 52.509 29.25 L 52.509 30.813 L 54.746 30.813 L 54.746 37.024 L 44.583 37.024 L 44.583 30.813 L 46.82 30.813 L 46.82 29.25 L 40.784 29.25 L 40.784 30.813 L 43.021 30.813 L 43.021 37.024 L 32.859 37.024 L 32.859 30.813 L 35.096 30.813 L 35.096 29.25 L 29.059 29.25 L 29.059 30.813 L 31.296 30.813 L 31.296 37.024 L 21.133 37.024 L 21.133 30.813 L 23.37 30.813 L 23.37 29.25 L 17.333 29.25 L 17.333 30.813 L 19.571 30.813 L 19.571 37.024 L 9.407 37.024 L 9.407 30.813 L 11.645 30.813 L 11.645 29.25 L 5.608 29.25 L 5.608 30.813 L 7.845 30.813 L 7.845 37.024 L -8.181 37.024 L -8.181 30.813 L -5.943 30.813 L -5.943 29.25 L -11.979 29.25 L -11.979 30.813 L -9.743 30.813 L -9.743 37.024 L -19.905 37.024 L -19.905 30.813 L -17.668 30.813 L -17.668 29.25 L -23.705 29.25 L -23.705 30.813 L -21.468 30.813 L -21.468 37.024 L -31.631 37.024 L -31.631 30.813 L -29.394 30.813 L -29.394 29.25 L -35.431 29.25 L -35.431 30.813 L -33.193 30.813 L -33.193 37.024 L -43.357 37.024 L -43.357 30.813 L -41.119 30.813 L -41.119 29.25 L -47.156 29.25 L -47.156 30.813 L -44.919 30.813 L -44.919 37.024 L -55.173 37.024 L -55.173 38.587 L 426.038 38.587 C 426.026 38.066 426.018 37.544 426.003 37.024 Z " fill="rgb(255,255,255)"/></g></g></g></g></svg>