<?xml version="1.0" encoding="UTF-8" standalone="no"?>
<!-- Generator: Gravit.io -->
<svg xmlns="http://www.w3.org/2000/svg" xmlns:xlink="http://www.w3.org/1999/xlink" style="isolation:isolate" viewBox="0 0 64 64" width="64pt" height="64pt"><defs><clipPath id="_clipPath_TSKbQ8IwvzoWoCSHsYHqqgcZmZQXfice"><rect width="64" height="64"/></clipPath></defs><g clip-path="url(#_clipPath_TSKbQ8IwvzoWoCSHsYHqqgcZmZQXfice)"><path d=" M 64 16 L 56.832 16 L 39.148 16 L 24.852 16 L 13.318 16 L 0 16 L 13.71 31.569 L 0 47.14 L 6.223 47.14 L 24.852 47.14 L 39.148 47.14 L 53.993 47.14 L 64 47.14 L 50.29 31.569 L 64 16 Z " fill="rgb(242,118,72)"/><path d=" M 47.57 31.57 C 47.57 40.169 40.6 47.141 32.001 47.141 C 23.4 47.141 16.43 40.169 16.43 31.57 C 16.43 22.971 23.4 16.001 32.001 16.001 C 40.6 16.001 47.57 22.971 47.57 31.57 Z " fill="rgb(55,53,53)"/></g></svg>